<?xml version="1.0" encoding="utf-8"?>
<svg version="1.1" id="Layer_1" xmlns="http://www.w3.org/2000/svg" xmlns:xlink="http://www.w3.org/1999/xlink" x="0px" y="0px"
	 viewBox="0 0 283.46 283.46" style="enable-background:new 0 0 283.46 283.46;" xml:space="preserve">
<style type="text/css">
	.st0{fill:#005CFF;}
	.st1{fill:#FFFFFF;}
</style>
<g>
	<path class="st0" d="M215.88,259.11H67.59c-23.88,0-43.24-19.36-43.24-43.24V67.59c0-23.88,19.36-43.24,43.24-43.24h148.29
		c23.88,0,43.24,19.36,43.24,43.24v148.29C259.11,239.75,239.75,259.11,215.88,259.11z"/>
	<g>
		<g>
			<path class="st1" d="M109.82,110.01c1.82,0,3.26-1.5,3.26-3.32c0-0.01,0-0.02,0-0.03c0-15.24,10.36-29.56,28.65-29.56
				c18.44,0,28.8,14.32,28.8,29.56c0,0.01,0,0.02,0,0.03c0,1.82,1.44,3.32,3.26,3.32h4c1.78,0,3.25-1.43,3.26-3.21
				c0-0.05,0-0.1,0-0.15c0-21.49-14.17-40.99-39.32-40.99s-39.32,19.51-39.32,40.99c0,0.05,0,0.1,0,0.15
				c0.01,1.78,1.48,3.2,3.26,3.2H109.82z"/>
			<path class="st1" d="M112.89,217.8c1.66,0,3.02-1.36,3.02-3.02l0,0c0-13.74,9.34-26.65,25.82-26.65
				c16.62,0,25.96,12.91,25.96,26.65v0c0,1.66,1.36,3.02,3.02,3.02h3.48c1.63,0,2.98-1.31,2.98-2.94c0-0.03,0-0.05,0-0.08
				c0-19.37-12.78-36.95-35.44-36.95s-35.44,17.58-35.44,36.95c0,0.03,0,0.05,0,0.08c0,1.63,1.35,2.94,2.98,2.94H112.89z"/>
			<path class="st1" d="M199.5,87.83c-3.3,0-5.9,2.71-5.9,6.01c0,0.02,0,0.04,0,0.06c0,27.59-18.76,53.53-51.87,53.53
				c-33.39,0-52.15-25.93-52.15-53.53c0-0.02,0-0.04,0-0.06c0-3.3-2.6-6.01-5.9-6.01h-7.23c-3.22,0-5.89,2.58-5.91,5.8
				c0,0.09,0,0.18,0,0.27c0,38.9,25.66,74.22,71.19,74.22s71.18-35.32,71.18-74.22c0-0.09,0-0.18,0-0.27
				c-0.01-3.22-2.68-5.8-5.91-5.8H199.5z"/>
		</g>
	</g>
</g>
</svg>
